<svg xmlns="http://www.w3.org/2000/svg" xmlns:xlink="http://www.w3.org/1999/xlink" version="1.1" class="marks" width="758" height="590" viewBox="0 0 758 590"><rect width="758" height="590" fill="white"/><g fill="none" stroke-miterlimit="10" transform="translate(53,27)"><g class="mark-group role-frame root" role="graphics-object" aria-roledescription="group mark container"><g transform="translate(0,0)"><path class="background" aria-hidden="true" d="M0.5,0.5h700v400h-700Z" stroke="#ddd"/><g><g class="mark-group role-axis" aria-hidden="true"><g transform="translate(0.5,0.5)"><path class="background" aria-hidden="true" d="M0,0h0v0h0Z" pointer-events="none"/><g><g class="mark-rule role-axis-grid" pointer-events="none"><line transform="translate(0,400)" x2="700" y2="0" stroke="#ddd" stroke-width="1" opacity="1"/><line transform="translate(0,360)" x2="700" y2="0" stroke="#ddd" stroke-width="1" opacity="1"/><line transform="translate(0,320)" x2="700" y2="0" stroke="#ddd" stroke-width="1" opacity="1"/><line transform="translate(0,280)" x2="700" y2="0" stroke="#ddd" stroke-width="1" opacity="1"/><line transform="translate(0,240)" x2="700" y2="0" stroke="#ddd" stroke-width="1" opacity="1"/><line transform="translate(0,200)" x2="700" y2="0" stroke="#ddd" stroke-width="1" opacity="1"/><line transform="translate(0,160)" x2="700" y2="0" stroke="#ddd" stroke-width="1" opacity="1"/><line transform="translate(0,120)" x2="700" y2="0" stroke="#ddd" stroke-width="1" opacity="1"/><line transform="translate(0,80)" x2="700" y2="0" stroke="#ddd" stroke-width="1" opacity="1"/><line transform="translate(0,40)" x2="700" y2="0" stroke="#ddd" stroke-width="1" opacity="1"/><line transform="translate(0,0)" x2="700" y2="0" stroke="#ddd" stroke-width="1" opacity="1"/></g></g><path class="foreground" aria-hidden="true" d="" pointer-events="none" display="none"/></g></g><g class="mark-group role-axis" role="graphics-symbol" aria-roledescription="axis" aria-label="X-axis titled 'labels_a2' for a discrete scale with 40 values: I-Vagueness, I-Doubt, I-Appeal-to-emotion, I-Evading-the-burden-of-proof, I-Ad-hominem, ending with B-Circular-reasoning"><g transform="translate(0.5,400.5)"><path class="background" aria-hidden="true" d="M0,0h0v0h0Z" pointer-events="none"/><g><g class="mark-rule role-axis-tick" pointer-events="none"><line transform="translate(8,0)" x2="0" y2="5" stroke="#888" stroke-width="1" opacity="1"/><line transform="translate(26,0)" x2="0" y2="5" stroke="#888" stroke-width="1" opacity="1"/><line transform="translate(43,0)" x2="0" y2="5" stroke="#888" stroke-width="1" opacity="1"/><line transform="translate(61,0)" x2="0" y2="5" stroke="#888" stroke-width="1" opacity="1"/><line transform="translate(78,0)" x2="0" y2="5" stroke="#888" stroke-width="1" opacity="1"/><line transform="translate(96,0)" x2="0" y2="5" stroke="#888" stroke-width="1" opacity="1"/><line transform="translate(113,0)" x2="0" y2="5" stroke="#888" stroke-width="1" opacity="1"/><line transform="translate(131,0)" x2="0" y2="5" stroke="#888" stroke-width="1" opacity="1"/><line transform="translate(148,0)" x2="0" y2="5" stroke="#888" stroke-width="1" opacity="1"/><line transform="translate(166,0)" x2="0" y2="5" stroke="#888" stroke-width="1" opacity="1"/><line transform="translate(183,0)" x2="0" y2="5" stroke="#888" stroke-width="1" opacity="1"/><line transform="translate(201,0)" x2="0" y2="5" stroke="#888" stroke-width="1" opacity="1"/><line transform="translate(218,0)" x2="0" y2="5" stroke="#888" stroke-width="1" opacity="1"/><line transform="translate(236,0)" x2="0" y2="5" stroke="#888" stroke-width="1" opacity="1"/><line transform="translate(253,0)" x2="0" y2="5" stroke="#888" stroke-width="1" opacity="1"/><line transform="translate(271,0)" x2="0" y2="5" stroke="#888" stroke-width="1" opacity="1"/><line transform="translate(288,0)" x2="0" y2="5" stroke="#888" stroke-width="1" opacity="1"/><line transform="translate(306,0)" x2="0" y2="5" stroke="#888" stroke-width="1" opacity="1"/><line transform="translate(323,0)" x2="0" y2="5" stroke="#888" stroke-width="1" opacity="1"/><line transform="translate(341,0)" x2="0" y2="5" stroke="#888" stroke-width="1" opacity="1"/><line transform="translate(358,0)" x2="0" y2="5" stroke="#888" stroke-width="1" opacity="1"/><line transform="translate(376,0)" x2="0" y2="5" stroke="#888" stroke-width="1" opacity="1"/><line transform="translate(393,0)" x2="0" y2="5" stroke="#888" stroke-width="1" opacity="1"/><line transform="translate(411,0)" x2="0" y2="5" stroke="#888" stroke-width="1" opacity="1"/><line transform="translate(428,0)" x2="0" y2="5" stroke="#888" stroke-width="1" opacity="1"/><line transform="translate(446,0)" x2="0" y2="5" stroke="#888" stroke-width="1" opacity="1"/><line transform="translate(463,0)" x2="0" y2="5" stroke="#888" stroke-width="1" opacity="1"/><line transform="translate(481,0)" x2="0" y2="5" stroke="#888" stroke-width="1" opacity="1"/><line transform="translate(498,0)" x2="0" y2="5" stroke="#888" stroke-width="1" opacity="1"/><line transform="translate(516,0)" x2="0" y2="5" stroke="#888" stroke-width="1" opacity="1"/><line transform="translate(533,0)" x2="0" y2="5" stroke="#888" stroke-width="1" opacity="1"/><line transform="translate(551,0)" x2="0" y2="5" stroke="#888" stroke-width="1" opacity="1"/><line transform="translate(568,0)" x2="0" y2="5" stroke="#888" stroke-width="1" opacity="1"/><line transform="translate(586,0)" x2="0" y2="5" stroke="#888" stroke-width="1" opacity="1"/><line transform="translate(603,0)" x2="0" y2="5" stroke="#888" stroke-width="1" opacity="1"/><line transform="translate(621,0)" x2="0" y2="5" stroke="#888" stroke-width="1" opacity="1"/><line transform="translate(638,0)" x2="0" y2="5" stroke="#888" stroke-width="1" opacity="1"/><line transform="translate(656,0)" x2="0" y2="5" stroke="#888" stroke-width="1" opacity="1"/><line transform="translate(673,0)" x2="0" y2="5" stroke="#888" stroke-width="1" opacity="1"/><line transform="translate(691,0)" x2="0" y2="5" stroke="#888" stroke-width="1" opacity="1"/></g><g class="mark-text role-axis-label" pointer-events="none"><text text-anchor="end" transform="translate(8.25,7) rotate(270) translate(0,3)" font-family="sans-serif" font-size="10px" fill="#000" opacity="1">I-Vagueness</text><text text-anchor="end" transform="translate(25.75,7) rotate(270) translate(0,3)" font-family="sans-serif" font-size="10px" fill="#000" opacity="1">I-Doubt</text><text text-anchor="end" transform="translate(43.25,7) rotate(270) translate(0,3)" font-family="sans-serif" font-size="10px" fill="#000" opacity="1">I-Appeal-to-emotion</text><text text-anchor="end" transform="translate(60.75,7) rotate(270) translate(0,3)" font-family="sans-serif" font-size="10px" fill="#000" opacity="1">I-Evading-the-burden-of-proof</text><text text-anchor="end" transform="translate(78.25,7) rotate(270) translate(0,3)" font-family="sans-serif" font-size="10px" fill="#000" opacity="1">I-Ad-hominem</text><text text-anchor="end" transform="translate(95.75,7) rotate(270) translate(0,3)" font-family="sans-serif" font-size="10px" fill="#000" opacity="1">I-Hasty-generalization</text><text text-anchor="end" transform="translate(113.25,7) rotate(270) translate(0,3)" font-family="sans-serif" font-size="10px" fill="#000" opacity="1">I-False-analogy</text><text text-anchor="end" transform="translate(130.75,7) rotate(270) translate(0,3)" font-family="sans-serif" font-size="10px" fill="#000" opacity="1">I-Loaded-language</text><text text-anchor="end" transform="translate(148.25,7) rotate(270) translate(0,3)" font-family="sans-serif" font-size="10px" fill="#000" opacity="1">I-Strawman</text><text text-anchor="end" transform="translate(165.75,7) rotate(270) translate(0,3)" font-family="sans-serif" font-size="10px" fill="#000" opacity="1">B-Loaded-language</text><text text-anchor="end" transform="translate(183.25,7) rotate(270) translate(0,3)" font-family="sans-serif" font-size="10px" fill="#000" opacity="1">I-Cherry-picking</text><text text-anchor="end" transform="translate(200.75,7) rotate(270) translate(0,3)" font-family="sans-serif" font-size="10px" fill="#000" opacity="1">I-Red-herring</text><text text-anchor="end" transform="translate(218.25,7) rotate(270) translate(0,3)" font-family="sans-serif" font-size="10px" fill="#000" opacity="1">B-Appeal-to-emotion</text><text text-anchor="end" transform="translate(235.75,7) rotate(270) translate(0,3)" font-family="sans-serif" font-size="10px" fill="#000" opacity="1">I-Causal-oversimplification</text><text text-anchor="end" transform="translate(253.25,7) rotate(270) translate(0,3)" font-family="sans-serif" font-size="10px" fill="#000" opacity="1">I-Name-calling-or-labelling</text><text text-anchor="end" transform="translate(270.75,7) rotate(270) translate(0,3)" font-family="sans-serif" font-size="10px" fill="#000" opacity="1">B-Vagueness</text><text text-anchor="end" transform="translate(288.25,7) rotate(270) translate(0,3)" font-family="sans-serif" font-size="10px" fill="#000" opacity="1">I-Slippery-slope</text><text text-anchor="end" transform="translate(305.75,7) rotate(270) translate(0,3)" font-family="sans-serif" font-size="10px" fill="#000" opacity="1">I-False-dilemma</text><text text-anchor="end" transform="translate(323.25,7) rotate(270) translate(0,3)" font-family="sans-serif" font-size="10px" fill="#000" opacity="1">I-Flag-waving</text><text text-anchor="end" transform="translate(340.75,7) rotate(270) translate(0,3)" font-family="sans-serif" font-size="10px" fill="#000" opacity="1">I-Thought-terminating-cliches</text><text text-anchor="end" transform="translate(358.25,7) rotate(270) translate(0,3)" font-family="sans-serif" font-size="10px" fill="#000" opacity="1">B-Name-calling-or-labelling</text><text text-anchor="end" transform="translate(375.75,7) rotate(270) translate(0,3)" font-family="sans-serif" font-size="10px" fill="#000" opacity="1">I-Slogan</text><text text-anchor="end" transform="translate(393.25,7) rotate(270) translate(0,3)" font-family="sans-serif" font-size="10px" fill="#000" opacity="1">I-Appeal-to-authority</text><text text-anchor="end" transform="translate(410.75,7) rotate(270) translate(0,3)" font-family="sans-serif" font-size="10px" fill="#000" opacity="1">B-Doubt</text><text text-anchor="end" transform="translate(428.25,7) rotate(270) translate(0,3)" font-family="sans-serif" font-size="10px" fill="#000" opacity="1">B-Hasty-generalization</text><text text-anchor="end" transform="translate(445.75,7) rotate(270) translate(0,3)" font-family="sans-serif" font-size="10px" fill="#000" opacity="1">B-Evading-the-burden-of-proof</text><text text-anchor="end" transform="translate(463.25,7) rotate(270) translate(0,3)" font-family="sans-serif" font-size="10px" fill="#000" opacity="1">I-Circular-reasoning</text><text text-anchor="end" transform="translate(480.75,7) rotate(270) translate(0,3)" font-family="sans-serif" font-size="10px" fill="#000" opacity="1">B-Flag-waving</text><text text-anchor="end" transform="translate(498.25,7) rotate(270) translate(0,3)" font-family="sans-serif" font-size="10px" fill="#000" opacity="1">B-Slogan</text><text text-anchor="end" transform="translate(515.75,7) rotate(270) translate(0,3)" font-family="sans-serif" font-size="10px" fill="#000" opacity="1">B-Ad-hominem</text><text text-anchor="end" transform="translate(533.25,7) rotate(270) translate(0,3)" font-family="sans-serif" font-size="10px" fill="#000" opacity="1">B-Thought-terminating-cliches</text><text text-anchor="end" transform="translate(550.75,7) rotate(270) translate(0,3)" font-family="sans-serif" font-size="10px" fill="#000" opacity="1">B-Red-herring</text><text text-anchor="end" transform="translate(568.25,7) rotate(270) translate(0,3)" font-family="sans-serif" font-size="10px" fill="#000" opacity="1">B-Appeal-to-authority</text><text text-anchor="end" transform="translate(585.75,7) rotate(270) translate(0,3)" font-family="sans-serif" font-size="10px" fill="#000" opacity="1">B-False-analogy</text><text text-anchor="end" transform="translate(603.25,7) rotate(270) translate(0,3)" font-family="sans-serif" font-size="10px" fill="#000" opacity="1">B-Slippery-slope</text><text text-anchor="end" transform="translate(620.75,7) rotate(270) translate(0,3)" font-family="sans-serif" font-size="10px" fill="#000" opacity="1">B-Causal-oversimplification</text><text text-anchor="end" transform="translate(638.25,7) rotate(270) translate(0,3)" font-family="sans-serif" font-size="10px" fill="#000" opacity="1">B-Cherry-picking</text><text text-anchor="end" transform="translate(655.75,7) rotate(270) translate(0,3)" font-family="sans-serif" font-size="10px" fill="#000" opacity="1">B-False-dilemma</text><text text-anchor="end" transform="translate(673.25,7) rotate(270) translate(0,3)" font-family="sans-serif" font-size="10px" fill="#000" opacity="1">B-Strawman</text><text text-anchor="end" transform="translate(690.75,7) rotate(270) translate(0,3)" font-family="sans-serif" font-size="10px" fill="#000" opacity="1">B-Circular-reasoning</text></g><g class="mark-rule role-axis-domain" pointer-events="none"><line transform="translate(0,0)" x2="700" y2="0" stroke="#888" stroke-width="1" opacity="1"/></g><g class="mark-text role-axis-title" pointer-events="none"><text text-anchor="middle" transform="translate(350,155.6298828125)" font-family="sans-serif" font-size="11px" font-weight="bold" fill="#000" opacity="1">labels_a2</text></g></g><path class="foreground" aria-hidden="true" d="" pointer-events="none" display="none"/></g></g><g class="mark-group role-axis" role="graphics-symbol" aria-roledescription="axis" aria-label="Y-axis titled 'Count' for a linear scale with values from 0 to 5,000"><g transform="translate(0.5,0.5)"><path class="background" aria-hidden="true" d="M0,0h0v0h0Z" pointer-events="none"/><g><g class="mark-rule role-axis-tick" pointer-events="none"><line transform="translate(0,400)" x2="-5" y2="0" stroke="#888" stroke-width="1" opacity="1"/><line transform="translate(0,360)" x2="-5" y2="0" stroke="#888" stroke-width="1" opacity="1"/><line transform="translate(0,320)" x2="-5" y2="0" stroke="#888" stroke-width="1" opacity="1"/><line transform="translate(0,280)" x2="-5" y2="0" stroke="#888" stroke-width="1" opacity="1"/><line transform="translate(0,240)" x2="-5" y2="0" stroke="#888" stroke-width="1" opacity="1"/><line transform="translate(0,200)" x2="-5" y2="0" stroke="#888" stroke-width="1" opacity="1"/><line transform="translate(0,160)" x2="-5" y2="0" stroke="#888" stroke-width="1" opacity="1"/><line transform="translate(0,120)" x2="-5" y2="0" stroke="#888" stroke-width="1" opacity="1"/><line transform="translate(0,80)" x2="-5" y2="0" stroke="#888" stroke-width="1" opacity="1"/><line transform="translate(0,40)" x2="-5" y2="0" stroke="#888" stroke-width="1" opacity="1"/><line transform="translate(0,0)" x2="-5" y2="0" stroke="#888" stroke-width="1" opacity="1"/></g><g class="mark-text role-axis-label" pointer-events="none"><text text-anchor="end" transform="translate(-7,403)" font-family="sans-serif" font-size="10px" fill="#000" opacity="1">0</text><text text-anchor="end" transform="translate(-7,363)" font-family="sans-serif" font-size="10px" fill="#000" opacity="1">500</text><text text-anchor="end" transform="translate(-7,323)" font-family="sans-serif" font-size="10px" fill="#000" opacity="1">1,000</text><text text-anchor="end" transform="translate(-7,283)" font-family="sans-serif" font-size="10px" fill="#000" opacity="1">1,500</text><text text-anchor="end" transform="translate(-7,243)" font-family="sans-serif" font-size="10px" fill="#000" opacity="1">2,000</text><text text-anchor="end" transform="translate(-7,203)" font-family="sans-serif" font-size="10px" fill="#000" opacity="1">2,500</text><text text-anchor="end" transform="translate(-7,163)" font-family="sans-serif" font-size="10px" fill="#000" opacity="1">3,000</text><text text-anchor="end" transform="translate(-7,123.00000000000001)" font-family="sans-serif" font-size="10px" fill="#000" opacity="1">3,500</text><text text-anchor="end" transform="translate(-7,82.99999999999999)" font-family="sans-serif" font-size="10px" fill="#000" opacity="1">4,000</text><text text-anchor="end" transform="translate(-7,42.99999999999999)" font-family="sans-serif" font-size="10px" fill="#000" opacity="1">4,500</text><text text-anchor="end" transform="translate(-7,3)" font-family="sans-serif" font-size="10px" fill="#000" opacity="1">5,000</text></g><g class="mark-rule role-axis-domain" pointer-events="none"><line transform="translate(0,400)" x2="0" y2="-400" stroke="#888" stroke-width="1" opacity="1"/></g><g class="mark-text role-axis-title" pointer-events="none"><text text-anchor="middle" transform="translate(-36.0244140625,200) rotate(-90) translate(0,-2)" font-family="sans-serif" font-size="11px" font-weight="bold" fill="#000" opacity="1">Count</text></g></g><path class="foreground" aria-hidden="true" d="" pointer-events="none" display="none"/></g></g><g class="mark-rect role-mark marks" role="graphics-object" aria-roledescription="rect mark container"><path aria-label="labels_a2: I-Vagueness; Count: 4979; label: I-Vagueness; count: 4979" role="graphics-symbol" aria-roledescription="bar" d="M0.875,1.6799999999999926h15.75v398.32h-15.75Z" fill="#4c78a8"/><path aria-label="labels_a2: I-Doubt; Count: 2953; label: I-Doubt; count: 2953" role="graphics-symbol" aria-roledescription="bar" d="M18.375,163.76h15.75v236.24h-15.75Z" fill="#4c78a8"/><path aria-label="labels_a2: I-Appeal-to-emotion; Count: 2847; label: I-Appeal-to-emotion; count: 2847" role="graphics-symbol" aria-roledescription="bar" d="M35.875,172.23999999999998h15.75v227.76000000000002h-15.75Z" fill="#4c78a8"/><path aria-label="labels_a2: I-Evading-the-burden-of-proof; Count: 2541; label: I-Evading-the-burden-of-proof; count: 2541" role="graphics-symbol" aria-roledescription="bar" d="M53.375,196.72h15.75v203.28h-15.75Z" fill="#4c78a8"/><path aria-label="labels_a2: I-Ad-hominem; Count: 1781; label: I-Ad-hominem; count: 1781" role="graphics-symbol" aria-roledescription="bar" d="M70.875,257.52h15.75v142.48000000000002h-15.75Z" fill="#4c78a8"/><path aria-label="labels_a2: I-Hasty-generalization; Count: 1627; label: I-Hasty-generalization; count: 1627" role="graphics-symbol" aria-roledescription="bar" d="M88.375,269.84h15.75v130.16000000000003h-15.75Z" fill="#4c78a8"/><path aria-label="labels_a2: I-False-analogy; Count: 1594; label: I-False-analogy; count: 1594" role="graphics-symbol" aria-roledescription="bar" d="M105.875,272.48h15.75v127.51999999999998h-15.75Z" fill="#4c78a8"/><path aria-label="labels_a2: I-Loaded-language; Count: 1582; label: I-Loaded-language; count: 1582" role="graphics-symbol" aria-roledescription="bar" d="M123.375,273.44h15.75v126.56h-15.75Z" fill="#4c78a8"/><path aria-label="labels_a2: I-Strawman; Count: 1296; label: I-Strawman; count: 1296" role="graphics-symbol" aria-roledescription="bar" d="M140.875,296.32h15.75v103.68h-15.75Z" fill="#4c78a8"/><path aria-label="labels_a2: B-Loaded-language; Count: 1154; label: B-Loaded-language; count: 1154" role="graphics-symbol" aria-roledescription="bar" d="M158.375,307.68h15.75v92.32h-15.75Z" fill="#4c78a8"/><path aria-label="labels_a2: I-Cherry-picking; Count: 1009; label: I-Cherry-picking; count: 1009" role="graphics-symbol" aria-roledescription="bar" d="M175.875,319.28000000000003h15.75v80.71999999999997h-15.75Z" fill="#4c78a8"/><path aria-label="labels_a2: I-Red-herring; Count: 969; label: I-Red-herring; count: 969" role="graphics-symbol" aria-roledescription="bar" d="M193.375,322.48h15.75v77.51999999999998h-15.75Z" fill="#4c78a8"/><path aria-label="labels_a2: B-Appeal-to-emotion; Count: 826; label: B-Appeal-to-emotion; count: 826" role="graphics-symbol" aria-roledescription="bar" d="M210.875,333.92h15.75v66.07999999999998h-15.75Z" fill="#4c78a8"/><path aria-label="labels_a2: I-Causal-oversimplification; Count: 785; label: I-Causal-oversimplification; count: 785" role="graphics-symbol" aria-roledescription="bar" d="M228.375,337.2h15.75v62.80000000000001h-15.75Z" fill="#4c78a8"/><path aria-label="labels_a2: I-Name-calling-or-labelling; Count: 752; label: I-Name-calling-or-labelling; count: 752" role="graphics-symbol" aria-roledescription="bar" d="M245.875,339.84000000000003h15.75v60.15999999999997h-15.75Z" fill="#4c78a8"/><path aria-label="labels_a2: B-Vagueness; Count: 633; label: B-Vagueness; count: 633" role="graphics-symbol" aria-roledescription="bar" d="M263.375,349.35999999999996h15.75v50.64000000000004h-15.75Z" fill="#4c78a8"/><path aria-label="labels_a2: I-Slippery-slope; Count: 602; label: I-Slippery-slope; count: 602" role="graphics-symbol" aria-roledescription="bar" d="M280.875,351.84000000000003h15.75v48.15999999999997h-15.75Z" fill="#4c78a8"/><path aria-label="labels_a2: I-False-dilemma; Count: 509; label: I-False-dilemma; count: 509" role="graphics-symbol" aria-roledescription="bar" d="M298.375,359.28h15.75v40.72000000000003h-15.75Z" fill="#4c78a8"/><path aria-label="labels_a2: I-Flag-waving; Count: 470; label: I-Flag-waving; count: 470" role="graphics-symbol" aria-roledescription="bar" d="M315.875,362.40000000000003h15.75v37.599999999999966h-15.75Z" fill="#4c78a8"/><path aria-label="labels_a2: I-Thought-terminating-cliches; Count: 446; label: I-Thought-terminating-cliches; count: 446" role="graphics-symbol" aria-roledescription="bar" d="M333.375,364.32000000000005h15.75v35.67999999999995h-15.75Z" fill="#4c78a8"/><path aria-label="labels_a2: B-Name-calling-or-labelling; Count: 434; label: B-Name-calling-or-labelling; count: 434" role="graphics-symbol" aria-roledescription="bar" d="M350.875,365.28000000000003h15.75v34.71999999999997h-15.75Z" fill="#4c78a8"/><path aria-label="labels_a2: I-Slogan; Count: 411; label: I-Slogan; count: 411" role="graphics-symbol" aria-roledescription="bar" d="M368.375,367.12h15.75v32.879999999999995h-15.75Z" fill="#4c78a8"/><path aria-label="labels_a2: I-Appeal-to-authority; Count: 383; label: I-Appeal-to-authority; count: 383" role="graphics-symbol" aria-roledescription="bar" d="M385.875,369.36h15.75v30.639999999999986h-15.75Z" fill="#4c78a8"/><path aria-label="labels_a2: B-Doubt; Count: 201; label: B-Doubt; count: 201" role="graphics-symbol" aria-roledescription="bar" d="M403.375,383.92h15.75v16.079999999999984h-15.75Z" fill="#4c78a8"/><path aria-label="labels_a2: B-Hasty-generalization; Count: 181; label: B-Hasty-generalization; count: 181" role="graphics-symbol" aria-roledescription="bar" d="M420.875,385.52h15.75v14.480000000000018h-15.75Z" fill="#4c78a8"/><path aria-label="labels_a2: B-Evading-the-burden-of-proof; Count: 167; label: B-Evading-the-burden-of-proof; count: 167" role="graphics-symbol" aria-roledescription="bar" d="M438.375,386.64h15.75v13.360000000000014h-15.75Z" fill="#4c78a8"/><path aria-label="labels_a2: I-Circular-reasoning; Count: 164; label: I-Circular-reasoning; count: 164" role="graphics-symbol" aria-roledescription="bar" d="M455.875,386.88h15.75v13.120000000000005h-15.75Z" fill="#4c78a8"/><path aria-label="labels_a2: B-Flag-waving; Count: 158; label: B-Flag-waving; count: 158" role="graphics-symbol" aria-roledescription="bar" d="M473.375,387.36h15.75v12.639999999999986h-15.75Z" fill="#4c78a8"/><path aria-label="labels_a2: B-Slogan; Count: 156; label: B-Slogan; count: 156" role="graphics-symbol" aria-roledescription="bar" d="M490.875,387.52h15.75v12.480000000000018h-15.75Z" fill="#4c78a8"/><path aria-label="labels_a2: B-Ad-hominem; Count: 119; label: B-Ad-hominem; count: 119" role="graphics-symbol" aria-roledescription="bar" d="M508.375,390.47999999999996h15.75v9.520000000000039h-15.75Z" fill="#4c78a8"/><path aria-label="labels_a2: B-Thought-terminating-cliches; Count: 107; label: B-Thought-terminating-cliches; count: 107" role="graphics-symbol" aria-roledescription="bar" d="M525.875,391.44h15.75v8.560000000000002h-15.75Z" fill="#4c78a8"/><path aria-label="labels_a2: B-Red-herring; Count: 96; label: B-Red-herring; count: 96" role="graphics-symbol" aria-roledescription="bar" d="M543.375,392.32h15.75v7.680000000000007h-15.75Z" fill="#4c78a8"/><path aria-label="labels_a2: B-Appeal-to-authority; Count: 74; label: B-Appeal-to-authority; count: 74" role="graphics-symbol" aria-roledescription="bar" d="M560.875,394.08h15.75v5.920000000000016h-15.75Z" fill="#4c78a8"/><path aria-label="labels_a2: B-False-analogy; Count: 72; label: B-False-analogy; count: 72" role="graphics-symbol" aria-roledescription="bar" d="M578.375,394.24h15.75v5.759999999999991h-15.75Z" fill="#4c78a8"/><path aria-label="labels_a2: B-Slippery-slope; Count: 68; label: B-Slippery-slope; count: 68" role="graphics-symbol" aria-roledescription="bar" d="M595.875,394.56h15.75v5.439999999999998h-15.75Z" fill="#4c78a8"/><path aria-label="labels_a2: B-Causal-oversimplification; Count: 45; label: B-Causal-oversimplification; count: 45" role="graphics-symbol" aria-roledescription="bar" d="M613.375,396.4h15.75v3.6000000000000227h-15.75Z" fill="#4c78a8"/><path aria-label="labels_a2: B-Cherry-picking; Count: 35; label: B-Cherry-picking; count: 35" role="graphics-symbol" aria-roledescription="bar" d="M630.875,397.2h15.75v2.8000000000000114h-15.75Z" fill="#4c78a8"/><path aria-label="labels_a2: B-False-dilemma; Count: 35; label: B-False-dilemma; count: 35" role="graphics-symbol" aria-roledescription="bar" d="M648.375,397.2h15.75v2.8000000000000114h-15.75Z" fill="#4c78a8"/><path aria-label="labels_a2: B-Strawman; Count: 34; label: B-Strawman; count: 34" role="graphics-symbol" aria-roledescription="bar" d="M665.875,397.28h15.75v2.7200000000000273h-15.75Z" fill="#4c78a8"/><path aria-label="labels_a2: B-Circular-reasoning; Count: 6; label: B-Circular-reasoning; count: 6" role="graphics-symbol" aria-roledescription="bar" d="M683.375,399.52h15.75v0.4800000000000182h-15.75Z" fill="#4c78a8"/></g><g class="mark-group role-title"><g transform="translate(350,-22)"><path class="background" aria-hidden="true" d="M0,0h0v0h0Z" pointer-events="none"/><g><g class="mark-text role-title-text" role="graphics-symbol" aria-roledescription="title" aria-label="Title text 'Distribution of labels_a1 (excluding O)'" pointer-events="none"><text text-anchor="middle" transform="translate(0,10)" font-family="sans-serif" font-size="13px" font-weight="bold" fill="#000" opacity="1">Distribution of labels_a1 (excluding O)</text></g></g><path class="foreground" aria-hidden="true" d="" pointer-events="none" display="none"/></g></g></g><path class="foreground" aria-hidden="true" d="" display="none"/></g></g></g></svg>