<svg xmlns="http://www.w3.org/2000/svg" xmlns:xlink="http://www.w3.org/1999/xlink" version="1.1" class="marks" width="649" height="580" viewBox="0 0 649 580"><rect width="649" height="580" fill="white"/><g fill="none" stroke-miterlimit="10" transform="translate(44,27)"><g class="mark-group role-frame root" role="graphics-object" aria-roledescription="group mark container"><g transform="translate(0,0)"><path class="background" aria-hidden="true" d="M0.5,0.5h600v400h-600Z" stroke="#ddd"/><g><g class="mark-group role-axis" aria-hidden="true"><g transform="translate(0.5,0.5)"><path class="background" aria-hidden="true" d="M0,0h0v0h0Z" pointer-events="none"/><g><g class="mark-rule role-axis-grid" pointer-events="none"><line transform="translate(0,400)" x2="600" y2="0" stroke="#ddd" stroke-width="1" opacity="1"/><line transform="translate(0,364)" x2="600" y2="0" stroke="#ddd" stroke-width="1" opacity="1"/><line transform="translate(0,327)" x2="600" y2="0" stroke="#ddd" stroke-width="1" opacity="1"/><line transform="translate(0,291)" x2="600" y2="0" stroke="#ddd" stroke-width="1" opacity="1"/><line transform="translate(0,255)" x2="600" y2="0" stroke="#ddd" stroke-width="1" opacity="1"/><line transform="translate(0,218)" x2="600" y2="0" stroke="#ddd" stroke-width="1" opacity="1"/><line transform="translate(0,182)" x2="600" y2="0" stroke="#ddd" stroke-width="1" opacity="1"/><line transform="translate(0,145)" x2="600" y2="0" stroke="#ddd" stroke-width="1" opacity="1"/><line transform="translate(0,109)" x2="600" y2="0" stroke="#ddd" stroke-width="1" opacity="1"/><line transform="translate(0,73)" x2="600" y2="0" stroke="#ddd" stroke-width="1" opacity="1"/><line transform="translate(0,36)" x2="600" y2="0" stroke="#ddd" stroke-width="1" opacity="1"/><line transform="translate(0,0)" x2="600" y2="0" stroke="#ddd" stroke-width="1" opacity="1"/></g></g><path class="foreground" aria-hidden="true" d="" pointer-events="none" display="none"/></g></g><g class="mark-group role-axis" role="graphics-symbol" aria-roledescription="axis" aria-label="X-axis titled 'labels_a1' for a discrete scale with 20 values: Appeal-to-emotion, Loaded-language, Vagueness, Name-calling-or-labelling, Doubt, ending with Circular-reasoning"><g transform="translate(0.5,400.5)"><path class="background" aria-hidden="true" d="M0,0h0v0h0Z" pointer-events="none"/><g><g class="mark-rule role-axis-tick" pointer-events="none"><line transform="translate(15,0)" x2="0" y2="5" stroke="#888" stroke-width="1" opacity="1"/><line transform="translate(45,0)" x2="0" y2="5" stroke="#888" stroke-width="1" opacity="1"/><line transform="translate(75,0)" x2="0" y2="5" stroke="#888" stroke-width="1" opacity="1"/><line transform="translate(105,0)" x2="0" y2="5" stroke="#888" stroke-width="1" opacity="1"/><line transform="translate(135,0)" x2="0" y2="5" stroke="#888" stroke-width="1" opacity="1"/><line transform="translate(165,0)" x2="0" y2="5" stroke="#888" stroke-width="1" opacity="1"/><line transform="translate(195,0)" x2="0" y2="5" stroke="#888" stroke-width="1" opacity="1"/><line transform="translate(225,0)" x2="0" y2="5" stroke="#888" stroke-width="1" opacity="1"/><line transform="translate(255,0)" x2="0" y2="5" stroke="#888" stroke-width="1" opacity="1"/><line transform="translate(285,0)" x2="0" y2="5" stroke="#888" stroke-width="1" opacity="1"/><line transform="translate(315,0)" x2="0" y2="5" stroke="#888" stroke-width="1" opacity="1"/><line transform="translate(345,0)" x2="0" y2="5" stroke="#888" stroke-width="1" opacity="1"/><line transform="translate(375,0)" x2="0" y2="5" stroke="#888" stroke-width="1" opacity="1"/><line transform="translate(405,0)" x2="0" y2="5" stroke="#888" stroke-width="1" opacity="1"/><line transform="translate(435,0)" x2="0" y2="5" stroke="#888" stroke-width="1" opacity="1"/><line transform="translate(465,0)" x2="0" y2="5" stroke="#888" stroke-width="1" opacity="1"/><line transform="translate(495,0)" x2="0" y2="5" stroke="#888" stroke-width="1" opacity="1"/><line transform="translate(525,0)" x2="0" y2="5" stroke="#888" stroke-width="1" opacity="1"/><line transform="translate(555,0)" x2="0" y2="5" stroke="#888" stroke-width="1" opacity="1"/><line transform="translate(585,0)" x2="0" y2="5" stroke="#888" stroke-width="1" opacity="1"/></g><g class="mark-text role-axis-label" pointer-events="none"><text text-anchor="end" transform="translate(14.5,7) rotate(270) translate(0,3)" font-family="sans-serif" font-size="10px" fill="#000" opacity="1">Appeal-to-emotion</text><text text-anchor="end" transform="translate(44.5,7) rotate(270) translate(0,3)" font-family="sans-serif" font-size="10px" fill="#000" opacity="1">Loaded-language</text><text text-anchor="end" transform="translate(74.5,7) rotate(270) translate(0,3)" font-family="sans-serif" font-size="10px" fill="#000" opacity="1">Vagueness</text><text text-anchor="end" transform="translate(104.5,7) rotate(270) translate(0,3)" font-family="sans-serif" font-size="10px" fill="#000" opacity="1">Name-calling-or-labelling</text><text text-anchor="end" transform="translate(134.5,7) rotate(270) translate(0,3)" font-family="sans-serif" font-size="10px" fill="#000" opacity="1">Doubt</text><text text-anchor="end" transform="translate(164.5,7) rotate(270) translate(0,3)" font-family="sans-serif" font-size="10px" fill="#000" opacity="1">Hasty-generalization</text><text text-anchor="end" transform="translate(194.5,7) rotate(270) translate(0,3)" font-family="sans-serif" font-size="10px" fill="#000" opacity="1">Evading-the-burden-of-proof</text><text text-anchor="end" transform="translate(224.5,7) rotate(270) translate(0,3)" font-family="sans-serif" font-size="10px" fill="#000" opacity="1">Flag-waving</text><text text-anchor="end" transform="translate(254.5,7) rotate(270) translate(0,3)" font-family="sans-serif" font-size="10px" fill="#000" opacity="1">Ad-hominem</text><text text-anchor="end" transform="translate(284.5,7) rotate(270) translate(0,3)" font-family="sans-serif" font-size="10px" fill="#000" opacity="1">False-analogy</text><text text-anchor="end" transform="translate(314.5,7) rotate(270) translate(0,3)" font-family="sans-serif" font-size="10px" fill="#000" opacity="1">Slogan</text><text text-anchor="end" transform="translate(344.5,7) rotate(270) translate(0,3)" font-family="sans-serif" font-size="10px" fill="#000" opacity="1">Thought-terminating-cliches</text><text text-anchor="end" transform="translate(374.5,7) rotate(270) translate(0,3)" font-family="sans-serif" font-size="10px" fill="#000" opacity="1">Red-herring</text><text text-anchor="end" transform="translate(404.5,7) rotate(270) translate(0,3)" font-family="sans-serif" font-size="10px" fill="#000" opacity="1">Appeal-to-authority</text><text text-anchor="end" transform="translate(434.5,7) rotate(270) translate(0,3)" font-family="sans-serif" font-size="10px" fill="#000" opacity="1">Slippery-slope</text><text text-anchor="end" transform="translate(464.5,7) rotate(270) translate(0,3)" font-family="sans-serif" font-size="10px" fill="#000" opacity="1">Causal-oversimplification</text><text text-anchor="end" transform="translate(494.5,7) rotate(270) translate(0,3)" font-family="sans-serif" font-size="10px" fill="#000" opacity="1">Strawman</text><text text-anchor="end" transform="translate(524.5,7) rotate(270) translate(0,3)" font-family="sans-serif" font-size="10px" fill="#000" opacity="1">Cherry-picking</text><text text-anchor="end" transform="translate(554.5,7) rotate(270) translate(0,3)" font-family="sans-serif" font-size="10px" fill="#000" opacity="1">False-dilemma</text><text text-anchor="end" transform="translate(584.5,7) rotate(270) translate(0,3)" font-family="sans-serif" font-size="10px" fill="#000" opacity="1">Circular-reasoning</text></g><g class="mark-rule role-axis-domain" pointer-events="none"><line transform="translate(0,0)" x2="600" y2="0" stroke="#888" stroke-width="1" opacity="1"/></g><g class="mark-text role-axis-title" pointer-events="none"><text text-anchor="middle" transform="translate(300,145.6298828125)" font-family="sans-serif" font-size="11px" font-weight="bold" fill="#000" opacity="1">labels_a1</text></g></g><path class="foreground" aria-hidden="true" d="" pointer-events="none" display="none"/></g></g><g class="mark-group role-axis" role="graphics-symbol" aria-roledescription="axis" aria-label="Y-axis titled 'Count' for a linear scale with values from 0 to 550"><g transform="translate(0.5,0.5)"><path class="background" aria-hidden="true" d="M0,0h0v0h0Z" pointer-events="none"/><g><g class="mark-rule role-axis-tick" pointer-events="none"><line transform="translate(0,400)" x2="-5" y2="0" stroke="#888" stroke-width="1" opacity="1"/><line transform="translate(0,364)" x2="-5" y2="0" stroke="#888" stroke-width="1" opacity="1"/><line transform="translate(0,327)" x2="-5" y2="0" stroke="#888" stroke-width="1" opacity="1"/><line transform="translate(0,291)" x2="-5" y2="0" stroke="#888" stroke-width="1" opacity="1"/><line transform="translate(0,255)" x2="-5" y2="0" stroke="#888" stroke-width="1" opacity="1"/><line transform="translate(0,218)" x2="-5" y2="0" stroke="#888" stroke-width="1" opacity="1"/><line transform="translate(0,182)" x2="-5" y2="0" stroke="#888" stroke-width="1" opacity="1"/><line transform="translate(0,145)" x2="-5" y2="0" stroke="#888" stroke-width="1" opacity="1"/><line transform="translate(0,109)" x2="-5" y2="0" stroke="#888" stroke-width="1" opacity="1"/><line transform="translate(0,73)" x2="-5" y2="0" stroke="#888" stroke-width="1" opacity="1"/><line transform="translate(0,36)" x2="-5" y2="0" stroke="#888" stroke-width="1" opacity="1"/><line transform="translate(0,0)" x2="-5" y2="0" stroke="#888" stroke-width="1" opacity="1"/></g><g class="mark-text role-axis-label" pointer-events="none"><text text-anchor="end" transform="translate(-7,403)" font-family="sans-serif" font-size="10px" fill="#000" opacity="1">0</text><text text-anchor="end" transform="translate(-7,366.6363636363636)" font-family="sans-serif" font-size="10px" fill="#000" opacity="1">50</text><text text-anchor="end" transform="translate(-7,330.27272727272725)" font-family="sans-serif" font-size="10px" fill="#000" opacity="1">100</text><text text-anchor="end" transform="translate(-7,293.90909090909093)" font-family="sans-serif" font-size="10px" fill="#000" opacity="1">150</text><text text-anchor="end" transform="translate(-7,257.5454545454545)" font-family="sans-serif" font-size="10px" fill="#000" opacity="1">200</text><text text-anchor="end" transform="translate(-7,221.18181818181816)" font-family="sans-serif" font-size="10px" fill="#000" opacity="1">250</text><text text-anchor="end" transform="translate(-7,184.81818181818184)" font-family="sans-serif" font-size="10px" fill="#000" opacity="1">300</text><text text-anchor="end" transform="translate(-7,148.45454545454547)" font-family="sans-serif" font-size="10px" fill="#000" opacity="1">350</text><text text-anchor="end" transform="translate(-7,112.09090909090908)" font-family="sans-serif" font-size="10px" fill="#000" opacity="1">400</text><text text-anchor="end" transform="translate(-7,75.7272727272727)" font-family="sans-serif" font-size="10px" fill="#000" opacity="1">450</text><text text-anchor="end" transform="translate(-7,39.363636363636374)" font-family="sans-serif" font-size="10px" fill="#000" opacity="1">500</text><text text-anchor="end" transform="translate(-7,3)" font-family="sans-serif" font-size="10px" fill="#000" opacity="1">550</text></g><g class="mark-rule role-axis-domain" pointer-events="none"><line transform="translate(0,400)" x2="0" y2="-400" stroke="#888" stroke-width="1" opacity="1"/></g><g class="mark-text role-axis-title" pointer-events="none"><text text-anchor="middle" transform="translate(-27.6845703125,200) rotate(-90) translate(0,-2)" font-family="sans-serif" font-size="11px" font-weight="bold" fill="#000" opacity="1">Count</text></g></g><path class="foreground" aria-hidden="true" d="" pointer-events="none" display="none"/></g></g><g class="mark-rect role-mark marks" role="graphics-object" aria-roledescription="rect mark container"><path aria-label="labels_a1: Appeal-to-emotion; Count: 533; label: Appeal-to-emotion; count: 533" role="graphics-symbol" aria-roledescription="bar" d="M1.5,12.363636363636354h27v387.6363636363636h-27Z" fill="#4c78a8"/><path aria-label="labels_a1: Loaded-language; Count: 509; label: Loaded-language; count: 509" role="graphics-symbol" aria-roledescription="bar" d="M31.5,29.818181818181834h27v370.1818181818182h-27Z" fill="#4c78a8"/><path aria-label="labels_a1: Vagueness; Count: 341; label: Vagueness; count: 341" role="graphics-symbol" aria-roledescription="bar" d="M61.5,152h27v248h-27Z" fill="#4c78a8"/><path aria-label="labels_a1: Name-calling-or-labelling; Count: 308; label: Name-calling-or-labelling; count: 308" role="graphics-symbol" aria-roledescription="bar" d="M91.5,175.99999999999997h27v224.00000000000003h-27Z" fill="#4c78a8"/><path aria-label="labels_a1: Doubt; Count: 178; label: Doubt; count: 178" role="graphics-symbol" aria-roledescription="bar" d="M121.5,270.54545454545456h27v129.45454545454544h-27Z" fill="#4c78a8"/><path aria-label="labels_a1: Hasty-generalization; Count: 176; label: Hasty-generalization; count: 176" role="graphics-symbol" aria-roledescription="bar" d="M151.5,272h27v128h-27Z" fill="#4c78a8"/><path aria-label="labels_a1: Evading-the-burden-of-proof; Count: 140; label: Evading-the-burden-of-proof; count: 140" role="graphics-symbol" aria-roledescription="bar" d="M181.5,298.1818181818182h27v101.81818181818181h-27Z" fill="#4c78a8"/><path aria-label="labels_a1: Flag-waving; Count: 123; label: Flag-waving; count: 123" role="graphics-symbol" aria-roledescription="bar" d="M211.5,310.54545454545456h27v89.45454545454544h-27Z" fill="#4c78a8"/><path aria-label="labels_a1: Ad-hominem; Count: 119; label: Ad-hominem; count: 119" role="graphics-symbol" aria-roledescription="bar" d="M241.5,313.4545454545455h27v86.5454545454545h-27Z" fill="#4c78a8"/><path aria-label="labels_a1: False-analogy; Count: 114; label: False-analogy; count: 114" role="graphics-symbol" aria-roledescription="bar" d="M271.5,317.09090909090907h27v82.90909090909093h-27Z" fill="#4c78a8"/><path aria-label="labels_a1: Slogan; Count: 111; label: Slogan; count: 111" role="graphics-symbol" aria-roledescription="bar" d="M301.5,319.2727272727273h27v80.72727272727269h-27Z" fill="#4c78a8"/><path aria-label="labels_a1: Thought-terminating-cliches; Count: 109; label: Thought-terminating-cliches; count: 109" role="graphics-symbol" aria-roledescription="bar" d="M331.5,320.7272727272727h27v79.27272727272731h-27Z" fill="#4c78a8"/><path aria-label="labels_a1: Red-herring; Count: 99; label: Red-herring; count: 99" role="graphics-symbol" aria-roledescription="bar" d="M361.5,328h27v72h-27Z" fill="#4c78a8"/><path aria-label="labels_a1: Appeal-to-authority; Count: 89; label: Appeal-to-authority; count: 89" role="graphics-symbol" aria-roledescription="bar" d="M391.5,335.27272727272725h27v64.72727272727275h-27Z" fill="#4c78a8"/><path aria-label="labels_a1: Slippery-slope; Count: 69; label: Slippery-slope; count: 69" role="graphics-symbol" aria-roledescription="bar" d="M421.5,349.8181818181818h27v50.18181818181819h-27Z" fill="#4c78a8"/><path aria-label="labels_a1: Causal-oversimplification; Count: 64; label: Causal-oversimplification; count: 64" role="graphics-symbol" aria-roledescription="bar" d="M451.5,353.45454545454544h27v46.54545454545456h-27Z" fill="#4c78a8"/><path aria-label="labels_a1: Strawman; Count: 53; label: Strawman; count: 53" role="graphics-symbol" aria-roledescription="bar" d="M481.5,361.4545454545455h27v38.545454545454504h-27Z" fill="#4c78a8"/><path aria-label="labels_a1: Cherry-picking; Count: 41; label: Cherry-picking; count: 41" role="graphics-symbol" aria-roledescription="bar" d="M511.5,370.1818181818182h27v29.818181818181813h-27Z" fill="#4c78a8"/><path aria-label="labels_a1: False-dilemma; Count: 30; label: False-dilemma; count: 30" role="graphics-symbol" aria-roledescription="bar" d="M541.5,378.1818181818182h27v21.818181818181813h-27Z" fill="#4c78a8"/><path aria-label="labels_a1: Circular-reasoning; Count: 10; label: Circular-reasoning; count: 10" role="graphics-symbol" aria-roledescription="bar" d="M571.5,392.72727272727275h27v7.272727272727252h-27Z" fill="#4c78a8"/></g><g class="mark-group role-title"><g transform="translate(300,-22)"><path class="background" aria-hidden="true" d="M0,0h0v0h0Z" pointer-events="none"/><g><g class="mark-text role-title-text" role="graphics-symbol" aria-roledescription="title" aria-label="Title text 'Distribution of labels_a1'" pointer-events="none"><text text-anchor="middle" transform="translate(0,10)" font-family="sans-serif" font-size="13px" font-weight="bold" fill="#000" opacity="1">Distribution of labels_a1</text></g></g><path class="foreground" aria-hidden="true" d="" pointer-events="none" display="none"/></g></g></g><path class="foreground" aria-hidden="true" d="" display="none"/></g></g></g></svg>