<svg xmlns="http://www.w3.org/2000/svg" xmlns:xlink="http://www.w3.org/1999/xlink" version="1.1" class="marks" width="649" height="580" viewBox="0 0 649 580"><rect width="649" height="580" fill="white"/><g fill="none" stroke-miterlimit="10" transform="translate(44,27)"><g class="mark-group role-frame root" role="graphics-object" aria-roledescription="group mark container"><g transform="translate(0,0)"><path class="background" aria-hidden="true" d="M0.5,0.5h600v400h-600Z" stroke="#ddd"/><g><g class="mark-group role-axis" aria-hidden="true"><g transform="translate(0.5,0.5)"><path class="background" aria-hidden="true" d="M0,0h0v0h0Z" pointer-events="none"/><g><g class="mark-rule role-axis-grid" pointer-events="none"><line transform="translate(0,400)" x2="600" y2="0" stroke="#ddd" stroke-width="1" opacity="1"/><line transform="translate(0,369)" x2="600" y2="0" stroke="#ddd" stroke-width="1" opacity="1"/><line transform="translate(0,338)" x2="600" y2="0" stroke="#ddd" stroke-width="1" opacity="1"/><line transform="translate(0,308)" x2="600" y2="0" stroke="#ddd" stroke-width="1" opacity="1"/><line transform="translate(0,277)" x2="600" y2="0" stroke="#ddd" stroke-width="1" opacity="1"/><line transform="translate(0,246)" x2="600" y2="0" stroke="#ddd" stroke-width="1" opacity="1"/><line transform="translate(0,215)" x2="600" y2="0" stroke="#ddd" stroke-width="1" opacity="1"/><line transform="translate(0,185)" x2="600" y2="0" stroke="#ddd" stroke-width="1" opacity="1"/><line transform="translate(0,154)" x2="600" y2="0" stroke="#ddd" stroke-width="1" opacity="1"/><line transform="translate(0,123)" x2="600" y2="0" stroke="#ddd" stroke-width="1" opacity="1"/><line transform="translate(0,92)" x2="600" y2="0" stroke="#ddd" stroke-width="1" opacity="1"/><line transform="translate(0,62)" x2="600" y2="0" stroke="#ddd" stroke-width="1" opacity="1"/><line transform="translate(0,31)" x2="600" y2="0" stroke="#ddd" stroke-width="1" opacity="1"/><line transform="translate(0,0)" x2="600" y2="0" stroke="#ddd" stroke-width="1" opacity="1"/></g></g><path class="foreground" aria-hidden="true" d="" pointer-events="none" display="none"/></g></g><g class="mark-group role-axis" role="graphics-symbol" aria-roledescription="axis" aria-label="X-axis titled 'labels_a2' for a discrete scale with 20 values: Loaded-language, Appeal-to-emotion, Vagueness, Name-calling-or-labelling, Doubt, ending with Circular-reasoning"><g transform="translate(0.5,400.5)"><path class="background" aria-hidden="true" d="M0,0h0v0h0Z" pointer-events="none"/><g><g class="mark-rule role-axis-tick" pointer-events="none"><line transform="translate(15,0)" x2="0" y2="5" stroke="#888" stroke-width="1" opacity="1"/><line transform="translate(45,0)" x2="0" y2="5" stroke="#888" stroke-width="1" opacity="1"/><line transform="translate(75,0)" x2="0" y2="5" stroke="#888" stroke-width="1" opacity="1"/><line transform="translate(105,0)" x2="0" y2="5" stroke="#888" stroke-width="1" opacity="1"/><line transform="translate(135,0)" x2="0" y2="5" stroke="#888" stroke-width="1" opacity="1"/><line transform="translate(165,0)" x2="0" y2="5" stroke="#888" stroke-width="1" opacity="1"/><line transform="translate(195,0)" x2="0" y2="5" stroke="#888" stroke-width="1" opacity="1"/><line transform="translate(225,0)" x2="0" y2="5" stroke="#888" stroke-width="1" opacity="1"/><line transform="translate(255,0)" x2="0" y2="5" stroke="#888" stroke-width="1" opacity="1"/><line transform="translate(285,0)" x2="0" y2="5" stroke="#888" stroke-width="1" opacity="1"/><line transform="translate(315,0)" x2="0" y2="5" stroke="#888" stroke-width="1" opacity="1"/><line transform="translate(345,0)" x2="0" y2="5" stroke="#888" stroke-width="1" opacity="1"/><line transform="translate(375,0)" x2="0" y2="5" stroke="#888" stroke-width="1" opacity="1"/><line transform="translate(405,0)" x2="0" y2="5" stroke="#888" stroke-width="1" opacity="1"/><line transform="translate(435,0)" x2="0" y2="5" stroke="#888" stroke-width="1" opacity="1"/><line transform="translate(465,0)" x2="0" y2="5" stroke="#888" stroke-width="1" opacity="1"/><line transform="translate(495,0)" x2="0" y2="5" stroke="#888" stroke-width="1" opacity="1"/><line transform="translate(525,0)" x2="0" y2="5" stroke="#888" stroke-width="1" opacity="1"/><line transform="translate(555,0)" x2="0" y2="5" stroke="#888" stroke-width="1" opacity="1"/><line transform="translate(585,0)" x2="0" y2="5" stroke="#888" stroke-width="1" opacity="1"/></g><g class="mark-text role-axis-label" pointer-events="none"><text text-anchor="end" transform="translate(14.5,7) rotate(270) translate(0,3)" font-family="sans-serif" font-size="10px" fill="#000" opacity="1">Loaded-language</text><text text-anchor="end" transform="translate(44.5,7) rotate(270) translate(0,3)" font-family="sans-serif" font-size="10px" fill="#000" opacity="1">Appeal-to-emotion</text><text text-anchor="end" transform="translate(74.5,7) rotate(270) translate(0,3)" font-family="sans-serif" font-size="10px" fill="#000" opacity="1">Vagueness</text><text text-anchor="end" transform="translate(104.5,7) rotate(270) translate(0,3)" font-family="sans-serif" font-size="10px" fill="#000" opacity="1">Name-calling-or-labelling</text><text text-anchor="end" transform="translate(134.5,7) rotate(270) translate(0,3)" font-family="sans-serif" font-size="10px" fill="#000" opacity="1">Doubt</text><text text-anchor="end" transform="translate(164.5,7) rotate(270) translate(0,3)" font-family="sans-serif" font-size="10px" fill="#000" opacity="1">Hasty-generalization</text><text text-anchor="end" transform="translate(194.5,7) rotate(270) translate(0,3)" font-family="sans-serif" font-size="10px" fill="#000" opacity="1">Evading-the-burden-of-proof</text><text text-anchor="end" transform="translate(224.5,7) rotate(270) translate(0,3)" font-family="sans-serif" font-size="10px" fill="#000" opacity="1">Flag-waving</text><text text-anchor="end" transform="translate(254.5,7) rotate(270) translate(0,3)" font-family="sans-serif" font-size="10px" fill="#000" opacity="1">Slogan</text><text text-anchor="end" transform="translate(284.5,7) rotate(270) translate(0,3)" font-family="sans-serif" font-size="10px" fill="#000" opacity="1">Ad-hominem</text><text text-anchor="end" transform="translate(314.5,7) rotate(270) translate(0,3)" font-family="sans-serif" font-size="10px" fill="#000" opacity="1">Thought-terminating-cliches</text><text text-anchor="end" transform="translate(344.5,7) rotate(270) translate(0,3)" font-family="sans-serif" font-size="10px" fill="#000" opacity="1">Red-herring</text><text text-anchor="end" transform="translate(374.5,7) rotate(270) translate(0,3)" font-family="sans-serif" font-size="10px" fill="#000" opacity="1">False-analogy</text><text text-anchor="end" transform="translate(404.5,7) rotate(270) translate(0,3)" font-family="sans-serif" font-size="10px" fill="#000" opacity="1">Appeal-to-authority</text><text text-anchor="end" transform="translate(434.5,7) rotate(270) translate(0,3)" font-family="sans-serif" font-size="10px" fill="#000" opacity="1">Slippery-slope</text><text text-anchor="end" transform="translate(464.5,7) rotate(270) translate(0,3)" font-family="sans-serif" font-size="10px" fill="#000" opacity="1">Causal-oversimplification</text><text text-anchor="end" transform="translate(494.5,7) rotate(270) translate(0,3)" font-family="sans-serif" font-size="10px" fill="#000" opacity="1">Cherry-picking</text><text text-anchor="end" transform="translate(524.5,7) rotate(270) translate(0,3)" font-family="sans-serif" font-size="10px" fill="#000" opacity="1">Strawman</text><text text-anchor="end" transform="translate(554.5,7) rotate(270) translate(0,3)" font-family="sans-serif" font-size="10px" fill="#000" opacity="1">False-dilemma</text><text text-anchor="end" transform="translate(584.5,7) rotate(270) translate(0,3)" font-family="sans-serif" font-size="10px" fill="#000" opacity="1">Circular-reasoning</text></g><g class="mark-rule role-axis-domain" pointer-events="none"><line transform="translate(0,0)" x2="600" y2="0" stroke="#888" stroke-width="1" opacity="1"/></g><g class="mark-text role-axis-title" pointer-events="none"><text text-anchor="middle" transform="translate(300,145.6298828125)" font-family="sans-serif" font-size="11px" font-weight="bold" fill="#000" opacity="1">labels_a2</text></g></g><path class="foreground" aria-hidden="true" d="" pointer-events="none" display="none"/></g></g><g class="mark-group role-axis" role="graphics-symbol" aria-roledescription="axis" aria-label="Y-axis titled 'Count' for a linear scale with values from 0 to 650"><g transform="translate(0.5,0.5)"><path class="background" aria-hidden="true" d="M0,0h0v0h0Z" pointer-events="none"/><g><g class="mark-rule role-axis-tick" pointer-events="none"><line transform="translate(0,400)" x2="-5" y2="0" stroke="#888" stroke-width="1" opacity="1"/><line transform="translate(0,369)" x2="-5" y2="0" stroke="#888" stroke-width="1" opacity="1"/><line transform="translate(0,338)" x2="-5" y2="0" stroke="#888" stroke-width="1" opacity="1"/><line transform="translate(0,308)" x2="-5" y2="0" stroke="#888" stroke-width="1" opacity="1"/><line transform="translate(0,277)" x2="-5" y2="0" stroke="#888" stroke-width="1" opacity="1"/><line transform="translate(0,246)" x2="-5" y2="0" stroke="#888" stroke-width="1" opacity="1"/><line transform="translate(0,215)" x2="-5" y2="0" stroke="#888" stroke-width="1" opacity="1"/><line transform="translate(0,185)" x2="-5" y2="0" stroke="#888" stroke-width="1" opacity="1"/><line transform="translate(0,154)" x2="-5" y2="0" stroke="#888" stroke-width="1" opacity="1"/><line transform="translate(0,123)" x2="-5" y2="0" stroke="#888" stroke-width="1" opacity="1"/><line transform="translate(0,92)" x2="-5" y2="0" stroke="#888" stroke-width="1" opacity="1"/><line transform="translate(0,62)" x2="-5" y2="0" stroke="#888" stroke-width="1" opacity="1"/><line transform="translate(0,31)" x2="-5" y2="0" stroke="#888" stroke-width="1" opacity="1"/><line transform="translate(0,0)" x2="-5" y2="0" stroke="#888" stroke-width="1" opacity="1"/></g><g class="mark-text role-axis-label" pointer-events="none"><text text-anchor="end" transform="translate(-7,403)" font-family="sans-serif" font-size="10px" fill="#000" opacity="1">0</text><text text-anchor="end" transform="translate(-7,372.2307692307692)" font-family="sans-serif" font-size="10px" fill="#000" opacity="1">50</text><text text-anchor="end" transform="translate(-7,341.46153846153845)" font-family="sans-serif" font-size="10px" fill="#000" opacity="1">100</text><text text-anchor="end" transform="translate(-7,310.6923076923077)" font-family="sans-serif" font-size="10px" fill="#000" opacity="1">150</text><text text-anchor="end" transform="translate(-7,279.9230769230769)" font-family="sans-serif" font-size="10px" fill="#000" opacity="1">200</text><text text-anchor="end" transform="translate(-7,249.15384615384616)" font-family="sans-serif" font-size="10px" fill="#000" opacity="1">250</text><text text-anchor="end" transform="translate(-7,218.3846153846154)" font-family="sans-serif" font-size="10px" fill="#000" opacity="1">300</text><text text-anchor="end" transform="translate(-7,187.6153846153846)" font-family="sans-serif" font-size="10px" fill="#000" opacity="1">350</text><text text-anchor="end" transform="translate(-7,156.84615384615384)" font-family="sans-serif" font-size="10px" fill="#000" opacity="1">400</text><text text-anchor="end" transform="translate(-7,126.07692307692308)" font-family="sans-serif" font-size="10px" fill="#000" opacity="1">450</text><text text-anchor="end" transform="translate(-7,95.30769230769229)" font-family="sans-serif" font-size="10px" fill="#000" opacity="1">500</text><text text-anchor="end" transform="translate(-7,64.53846153846155)" font-family="sans-serif" font-size="10px" fill="#000" opacity="1">550</text><text text-anchor="end" transform="translate(-7,33.769230769230745)" font-family="sans-serif" font-size="10px" fill="#000" opacity="1">600</text><text text-anchor="end" transform="translate(-7,3)" font-family="sans-serif" font-size="10px" fill="#000" opacity="1">650</text></g><g class="mark-rule role-axis-domain" pointer-events="none"><line transform="translate(0,400)" x2="0" y2="-400" stroke="#888" stroke-width="1" opacity="1"/></g><g class="mark-text role-axis-title" pointer-events="none"><text text-anchor="middle" transform="translate(-27.6845703125,200) rotate(-90) translate(0,-2)" font-family="sans-serif" font-size="11px" font-weight="bold" fill="#000" opacity="1">Count</text></g></g><path class="foreground" aria-hidden="true" d="" pointer-events="none" display="none"/></g></g><g class="mark-rect role-mark marks" role="graphics-object" aria-roledescription="rect mark container"><path aria-label="labels_a2: Loaded-language; Count: 649; label: Loaded-language; count: 649" role="graphics-symbol" aria-roledescription="bar" d="M1.5,0.6153846153845954h27v399.3846153846154h-27Z" fill="#4c78a8"/><path aria-label="labels_a2: Appeal-to-emotion; Count: 570; label: Appeal-to-emotion; count: 570" role="graphics-symbol" aria-roledescription="bar" d="M31.5,49.23076923076923h27v350.7692307692308h-27Z" fill="#4c78a8"/><path aria-label="labels_a2: Vagueness; Count: 475; label: Vagueness; count: 475" role="graphics-symbol" aria-roledescription="bar" d="M61.5,107.69230769230771h27v292.30769230769226h-27Z" fill="#4c78a8"/><path aria-label="labels_a2: Name-calling-or-labelling; Count: 295; label: Name-calling-or-labelling; count: 295" role="graphics-symbol" aria-roledescription="bar" d="M91.5,218.46153846153848h27v181.53846153846152h-27Z" fill="#4c78a8"/><path aria-label="labels_a2: Doubt; Count: 188; label: Doubt; count: 188" role="graphics-symbol" aria-roledescription="bar" d="M121.5,284.3076923076923h27v115.69230769230768h-27Z" fill="#4c78a8"/><path aria-label="labels_a2: Hasty-generalization; Count: 168; label: Hasty-generalization; count: 168" role="graphics-symbol" aria-roledescription="bar" d="M151.5,296.6153846153846h27v103.38461538461542h-27Z" fill="#4c78a8"/><path aria-label="labels_a2: Evading-the-burden-of-proof; Count: 154; label: Evading-the-burden-of-proof; count: 154" role="graphics-symbol" aria-roledescription="bar" d="M181.5,305.2307692307692h27v94.76923076923077h-27Z" fill="#4c78a8"/><path aria-label="labels_a2: Flag-waving; Count: 125; label: Flag-waving; count: 125" role="graphics-symbol" aria-roledescription="bar" d="M211.5,323.0769230769231h27v76.9230769230769h-27Z" fill="#4c78a8"/><path aria-label="labels_a2: Slogan; Count: 115; label: Slogan; count: 115" role="graphics-symbol" aria-roledescription="bar" d="M241.5,329.2307692307692h27v70.76923076923077h-27Z" fill="#4c78a8"/><path aria-label="labels_a2: Ad-hominem; Count: 115; label: Ad-hominem; count: 115" role="graphics-symbol" aria-roledescription="bar" d="M271.5,329.2307692307692h27v70.76923076923077h-27Z" fill="#4c78a8"/><path aria-label="labels_a2: Thought-terminating-cliches; Count: 105; label: Thought-terminating-cliches; count: 105" role="graphics-symbol" aria-roledescription="bar" d="M301.5,335.3846153846154h27v64.61538461538458h-27Z" fill="#4c78a8"/><path aria-label="labels_a2: Red-herring; Count: 88; label: Red-herring; count: 88" role="graphics-symbol" aria-roledescription="bar" d="M331.5,345.8461538461538h27v54.15384615384619h-27Z" fill="#4c78a8"/><path aria-label="labels_a2: False-analogy; Count: 72; label: False-analogy; count: 72" role="graphics-symbol" aria-roledescription="bar" d="M361.5,355.69230769230774h27v44.307692307692264h-27Z" fill="#4c78a8"/><path aria-label="labels_a2: Appeal-to-authority; Count: 70; label: Appeal-to-authority; count: 70" role="graphics-symbol" aria-roledescription="bar" d="M391.5,356.9230769230769h27v43.076923076923094h-27Z" fill="#4c78a8"/><path aria-label="labels_a2: Slippery-slope; Count: 66; label: Slippery-slope; count: 66" role="graphics-symbol" aria-roledescription="bar" d="M421.5,359.38461538461536h27v40.61538461538464h-27Z" fill="#4c78a8"/><path aria-label="labels_a2: Causal-oversimplification; Count: 44; label: Causal-oversimplification; count: 44" role="graphics-symbol" aria-roledescription="bar" d="M451.5,372.9230769230769h27v27.076923076923094h-27Z" fill="#4c78a8"/><path aria-label="labels_a2: Cherry-picking; Count: 35; label: Cherry-picking; count: 35" role="graphics-symbol" aria-roledescription="bar" d="M481.5,378.46153846153845h27v21.538461538461547h-27Z" fill="#4c78a8"/><path aria-label="labels_a2: Strawman; Count: 34; label: Strawman; count: 34" role="graphics-symbol" aria-roledescription="bar" d="M511.5,379.0769230769231h27v20.923076923076906h-27Z" fill="#4c78a8"/><path aria-label="labels_a2: False-dilemma; Count: 31; label: False-dilemma; count: 31" role="graphics-symbol" aria-roledescription="bar" d="M541.5,380.9230769230769h27v19.076923076923094h-27Z" fill="#4c78a8"/><path aria-label="labels_a2: Circular-reasoning; Count: 6; label: Circular-reasoning; count: 6" role="graphics-symbol" aria-roledescription="bar" d="M571.5,396.3076923076923h27v3.692307692307679h-27Z" fill="#4c78a8"/></g><g class="mark-group role-title"><g transform="translate(300,-22)"><path class="background" aria-hidden="true" d="M0,0h0v0h0Z" pointer-events="none"/><g><g class="mark-text role-title-text" role="graphics-symbol" aria-roledescription="title" aria-label="Title text 'Distribution of labels_a2'" pointer-events="none"><text text-anchor="middle" transform="translate(0,10)" font-family="sans-serif" font-size="13px" font-weight="bold" fill="#000" opacity="1">Distribution of labels_a2</text></g></g><path class="foreground" aria-hidden="true" d="" pointer-events="none" display="none"/></g></g></g><path class="foreground" aria-hidden="true" d="" display="none"/></g></g></g></svg>