<svg xmlns="http://www.w3.org/2000/svg" xmlns:xlink="http://www.w3.org/1999/xlink" version="1.1" class="marks" width="758" height="590" viewBox="0 0 758 590"><rect width="758" height="590" fill="white"/><g fill="none" stroke-miterlimit="10" transform="translate(53,27)"><g class="mark-group role-frame root" role="graphics-object" aria-roledescription="group mark container"><g transform="translate(0,0)"><path class="background" aria-hidden="true" d="M0.5,0.5h700v400h-700Z" stroke="#ddd"/><g><g class="mark-group role-axis" aria-hidden="true"><g transform="translate(0.5,0.5)"><path class="background" aria-hidden="true" d="M0,0h0v0h0Z" pointer-events="none"/><g><g class="mark-rule role-axis-grid" pointer-events="none"><line transform="translate(0,400)" x2="700" y2="0" stroke="#ddd" stroke-width="1" opacity="1"/><line transform="translate(0,350)" x2="700" y2="0" stroke="#ddd" stroke-width="1" opacity="1"/><line transform="translate(0,300)" x2="700" y2="0" stroke="#ddd" stroke-width="1" opacity="1"/><line transform="translate(0,250)" x2="700" y2="0" stroke="#ddd" stroke-width="1" opacity="1"/><line transform="translate(0,200)" x2="700" y2="0" stroke="#ddd" stroke-width="1" opacity="1"/><line transform="translate(0,150)" x2="700" y2="0" stroke="#ddd" stroke-width="1" opacity="1"/><line transform="translate(0,100)" x2="700" y2="0" stroke="#ddd" stroke-width="1" opacity="1"/><line transform="translate(0,50)" x2="700" y2="0" stroke="#ddd" stroke-width="1" opacity="1"/><line transform="translate(0,0)" x2="700" y2="0" stroke="#ddd" stroke-width="1" opacity="1"/></g></g><path class="foreground" aria-hidden="true" d="" pointer-events="none" display="none"/></g></g><g class="mark-group role-axis" role="graphics-symbol" aria-roledescription="axis" aria-label="X-axis titled 'labels_a1' for a discrete scale with 40 values: I-Appeal-to-emotion, I-Vagueness, I-Doubt, I-Evading-the-burden-of-proof, I-False-analogy, ending with B-Circular-reasoning"><g transform="translate(0.5,400.5)"><path class="background" aria-hidden="true" d="M0,0h0v0h0Z" pointer-events="none"/><g><g class="mark-rule role-axis-tick" pointer-events="none"><line transform="translate(8,0)" x2="0" y2="5" stroke="#888" stroke-width="1" opacity="1"/><line transform="translate(26,0)" x2="0" y2="5" stroke="#888" stroke-width="1" opacity="1"/><line transform="translate(43,0)" x2="0" y2="5" stroke="#888" stroke-width="1" opacity="1"/><line transform="translate(61,0)" x2="0" y2="5" stroke="#888" stroke-width="1" opacity="1"/><line transform="translate(78,0)" x2="0" y2="5" stroke="#888" stroke-width="1" opacity="1"/><line transform="translate(96,0)" x2="0" y2="5" stroke="#888" stroke-width="1" opacity="1"/><line transform="translate(113,0)" x2="0" y2="5" stroke="#888" stroke-width="1" opacity="1"/><line transform="translate(131,0)" x2="0" y2="5" stroke="#888" stroke-width="1" opacity="1"/><line transform="translate(148,0)" x2="0" y2="5" stroke="#888" stroke-width="1" opacity="1"/><line transform="translate(166,0)" x2="0" y2="5" stroke="#888" stroke-width="1" opacity="1"/><line transform="translate(183,0)" x2="0" y2="5" stroke="#888" stroke-width="1" opacity="1"/><line transform="translate(201,0)" x2="0" y2="5" stroke="#888" stroke-width="1" opacity="1"/><line transform="translate(218,0)" x2="0" y2="5" stroke="#888" stroke-width="1" opacity="1"/><line transform="translate(236,0)" x2="0" y2="5" stroke="#888" stroke-width="1" opacity="1"/><line transform="translate(253,0)" x2="0" y2="5" stroke="#888" stroke-width="1" opacity="1"/><line transform="translate(271,0)" x2="0" y2="5" stroke="#888" stroke-width="1" opacity="1"/><line transform="translate(288,0)" x2="0" y2="5" stroke="#888" stroke-width="1" opacity="1"/><line transform="translate(306,0)" x2="0" y2="5" stroke="#888" stroke-width="1" opacity="1"/><line transform="translate(323,0)" x2="0" y2="5" stroke="#888" stroke-width="1" opacity="1"/><line transform="translate(341,0)" x2="0" y2="5" stroke="#888" stroke-width="1" opacity="1"/><line transform="translate(358,0)" x2="0" y2="5" stroke="#888" stroke-width="1" opacity="1"/><line transform="translate(376,0)" x2="0" y2="5" stroke="#888" stroke-width="1" opacity="1"/><line transform="translate(393,0)" x2="0" y2="5" stroke="#888" stroke-width="1" opacity="1"/><line transform="translate(411,0)" x2="0" y2="5" stroke="#888" stroke-width="1" opacity="1"/><line transform="translate(428,0)" x2="0" y2="5" stroke="#888" stroke-width="1" opacity="1"/><line transform="translate(446,0)" x2="0" y2="5" stroke="#888" stroke-width="1" opacity="1"/><line transform="translate(463,0)" x2="0" y2="5" stroke="#888" stroke-width="1" opacity="1"/><line transform="translate(481,0)" x2="0" y2="5" stroke="#888" stroke-width="1" opacity="1"/><line transform="translate(498,0)" x2="0" y2="5" stroke="#888" stroke-width="1" opacity="1"/><line transform="translate(516,0)" x2="0" y2="5" stroke="#888" stroke-width="1" opacity="1"/><line transform="translate(533,0)" x2="0" y2="5" stroke="#888" stroke-width="1" opacity="1"/><line transform="translate(551,0)" x2="0" y2="5" stroke="#888" stroke-width="1" opacity="1"/><line transform="translate(568,0)" x2="0" y2="5" stroke="#888" stroke-width="1" opacity="1"/><line transform="translate(586,0)" x2="0" y2="5" stroke="#888" stroke-width="1" opacity="1"/><line transform="translate(603,0)" x2="0" y2="5" stroke="#888" stroke-width="1" opacity="1"/><line transform="translate(621,0)" x2="0" y2="5" stroke="#888" stroke-width="1" opacity="1"/><line transform="translate(638,0)" x2="0" y2="5" stroke="#888" stroke-width="1" opacity="1"/><line transform="translate(656,0)" x2="0" y2="5" stroke="#888" stroke-width="1" opacity="1"/><line transform="translate(673,0)" x2="0" y2="5" stroke="#888" stroke-width="1" opacity="1"/><line transform="translate(691,0)" x2="0" y2="5" stroke="#888" stroke-width="1" opacity="1"/></g><g class="mark-text role-axis-label" pointer-events="none"><text text-anchor="end" transform="translate(8.25,7) rotate(270) translate(0,3)" font-family="sans-serif" font-size="10px" fill="#000" opacity="1">I-Appeal-to-emotion</text><text text-anchor="end" transform="translate(25.75,7) rotate(270) translate(0,3)" font-family="sans-serif" font-size="10px" fill="#000" opacity="1">I-Vagueness</text><text text-anchor="end" transform="translate(43.25,7) rotate(270) translate(0,3)" font-family="sans-serif" font-size="10px" fill="#000" opacity="1">I-Doubt</text><text text-anchor="end" transform="translate(60.75,7) rotate(270) translate(0,3)" font-family="sans-serif" font-size="10px" fill="#000" opacity="1">I-Evading-the-burden-of-proof</text><text text-anchor="end" transform="translate(78.25,7) rotate(270) translate(0,3)" font-family="sans-serif" font-size="10px" fill="#000" opacity="1">I-False-analogy</text><text text-anchor="end" transform="translate(95.75,7) rotate(270) translate(0,3)" font-family="sans-serif" font-size="10px" fill="#000" opacity="1">I-Hasty-generalization</text><text text-anchor="end" transform="translate(113.25,7) rotate(270) translate(0,3)" font-family="sans-serif" font-size="10px" fill="#000" opacity="1">I-Strawman</text><text text-anchor="end" transform="translate(130.75,7) rotate(270) translate(0,3)" font-family="sans-serif" font-size="10px" fill="#000" opacity="1">I-Ad-hominem</text><text text-anchor="end" transform="translate(148.25,7) rotate(270) translate(0,3)" font-family="sans-serif" font-size="10px" fill="#000" opacity="1">I-Loaded-language</text><text text-anchor="end" transform="translate(165.75,7) rotate(270) translate(0,3)" font-family="sans-serif" font-size="10px" fill="#000" opacity="1">I-Red-herring</text><text text-anchor="end" transform="translate(183.25,7) rotate(270) translate(0,3)" font-family="sans-serif" font-size="10px" fill="#000" opacity="1">I-Causal-oversimplification</text><text text-anchor="end" transform="translate(200.75,7) rotate(270) translate(0,3)" font-family="sans-serif" font-size="10px" fill="#000" opacity="1">I-Cherry-picking</text><text text-anchor="end" transform="translate(218.25,7) rotate(270) translate(0,3)" font-family="sans-serif" font-size="10px" fill="#000" opacity="1">B-Loaded-language</text><text text-anchor="end" transform="translate(235.75,7) rotate(270) translate(0,3)" font-family="sans-serif" font-size="10px" fill="#000" opacity="1">B-Appeal-to-emotion</text><text text-anchor="end" transform="translate(253.25,7) rotate(270) translate(0,3)" font-family="sans-serif" font-size="10px" fill="#000" opacity="1">I-Slippery-slope</text><text text-anchor="end" transform="translate(270.75,7) rotate(270) translate(0,3)" font-family="sans-serif" font-size="10px" fill="#000" opacity="1">I-Name-calling-or-labelling</text><text text-anchor="end" transform="translate(288.25,7) rotate(270) translate(0,3)" font-family="sans-serif" font-size="10px" fill="#000" opacity="1">I-Flag-waving</text><text text-anchor="end" transform="translate(305.75,7) rotate(270) translate(0,3)" font-family="sans-serif" font-size="10px" fill="#000" opacity="1">I-False-dilemma</text><text text-anchor="end" transform="translate(323.25,7) rotate(270) translate(0,3)" font-family="sans-serif" font-size="10px" fill="#000" opacity="1">I-Thought-terminating-cliches</text><text text-anchor="end" transform="translate(340.75,7) rotate(270) translate(0,3)" font-family="sans-serif" font-size="10px" fill="#000" opacity="1">I-Appeal-to-authority</text><text text-anchor="end" transform="translate(358.25,7) rotate(270) translate(0,3)" font-family="sans-serif" font-size="10px" fill="#000" opacity="1">B-Name-calling-or-labelling</text><text text-anchor="end" transform="translate(375.75,7) rotate(270) translate(0,3)" font-family="sans-serif" font-size="10px" fill="#000" opacity="1">B-Vagueness</text><text text-anchor="end" transform="translate(393.25,7) rotate(270) translate(0,3)" font-family="sans-serif" font-size="10px" fill="#000" opacity="1">I-Slogan</text><text text-anchor="end" transform="translate(410.75,7) rotate(270) translate(0,3)" font-family="sans-serif" font-size="10px" fill="#000" opacity="1">I-Circular-reasoning</text><text text-anchor="end" transform="translate(428.25,7) rotate(270) translate(0,3)" font-family="sans-serif" font-size="10px" fill="#000" opacity="1">B-Doubt</text><text text-anchor="end" transform="translate(445.75,7) rotate(270) translate(0,3)" font-family="sans-serif" font-size="10px" fill="#000" opacity="1">B-Hasty-generalization</text><text text-anchor="end" transform="translate(463.25,7) rotate(270) translate(0,3)" font-family="sans-serif" font-size="10px" fill="#000" opacity="1">B-Flag-waving</text><text text-anchor="end" transform="translate(480.75,7) rotate(270) translate(0,3)" font-family="sans-serif" font-size="10px" fill="#000" opacity="1">B-Slogan</text><text text-anchor="end" transform="translate(498.25,7) rotate(270) translate(0,3)" font-family="sans-serif" font-size="10px" fill="#000" opacity="1">B-Evading-the-burden-of-proof</text><text text-anchor="end" transform="translate(515.75,7) rotate(270) translate(0,3)" font-family="sans-serif" font-size="10px" fill="#000" opacity="1">B-Ad-hominem</text><text text-anchor="end" transform="translate(533.25,7) rotate(270) translate(0,3)" font-family="sans-serif" font-size="10px" fill="#000" opacity="1">B-False-analogy</text><text text-anchor="end" transform="translate(550.75,7) rotate(270) translate(0,3)" font-family="sans-serif" font-size="10px" fill="#000" opacity="1">B-Thought-terminating-cliches</text><text text-anchor="end" transform="translate(568.25,7) rotate(270) translate(0,3)" font-family="sans-serif" font-size="10px" fill="#000" opacity="1">B-Red-herring</text><text text-anchor="end" transform="translate(585.75,7) rotate(270) translate(0,3)" font-family="sans-serif" font-size="10px" fill="#000" opacity="1">B-Appeal-to-authority</text><text text-anchor="end" transform="translate(603.25,7) rotate(270) translate(0,3)" font-family="sans-serif" font-size="10px" fill="#000" opacity="1">B-Slippery-slope</text><text text-anchor="end" transform="translate(620.75,7) rotate(270) translate(0,3)" font-family="sans-serif" font-size="10px" fill="#000" opacity="1">B-Causal-oversimplification</text><text text-anchor="end" transform="translate(638.25,7) rotate(270) translate(0,3)" font-family="sans-serif" font-size="10px" fill="#000" opacity="1">B-Strawman</text><text text-anchor="end" transform="translate(655.75,7) rotate(270) translate(0,3)" font-family="sans-serif" font-size="10px" fill="#000" opacity="1">B-Cherry-picking</text><text text-anchor="end" transform="translate(673.25,7) rotate(270) translate(0,3)" font-family="sans-serif" font-size="10px" fill="#000" opacity="1">B-False-dilemma</text><text text-anchor="end" transform="translate(690.75,7) rotate(270) translate(0,3)" font-family="sans-serif" font-size="10px" fill="#000" opacity="1">B-Circular-reasoning</text></g><g class="mark-rule role-axis-domain" pointer-events="none"><line transform="translate(0,0)" x2="700" y2="0" stroke="#888" stroke-width="1" opacity="1"/></g><g class="mark-text role-axis-title" pointer-events="none"><text text-anchor="middle" transform="translate(350,155.6298828125)" font-family="sans-serif" font-size="11px" font-weight="bold" fill="#000" opacity="1">labels_a1</text></g></g><path class="foreground" aria-hidden="true" d="" pointer-events="none" display="none"/></g></g><g class="mark-group role-axis" role="graphics-symbol" aria-roledescription="axis" aria-label="Y-axis titled 'Count' for a linear scale with values from 0 to 4,000"><g transform="translate(0.5,0.5)"><path class="background" aria-hidden="true" d="M0,0h0v0h0Z" pointer-events="none"/><g><g class="mark-rule role-axis-tick" pointer-events="none"><line transform="translate(0,400)" x2="-5" y2="0" stroke="#888" stroke-width="1" opacity="1"/><line transform="translate(0,350)" x2="-5" y2="0" stroke="#888" stroke-width="1" opacity="1"/><line transform="translate(0,300)" x2="-5" y2="0" stroke="#888" stroke-width="1" opacity="1"/><line transform="translate(0,250)" x2="-5" y2="0" stroke="#888" stroke-width="1" opacity="1"/><line transform="translate(0,200)" x2="-5" y2="0" stroke="#888" stroke-width="1" opacity="1"/><line transform="translate(0,150)" x2="-5" y2="0" stroke="#888" stroke-width="1" opacity="1"/><line transform="translate(0,100)" x2="-5" y2="0" stroke="#888" stroke-width="1" opacity="1"/><line transform="translate(0,50)" x2="-5" y2="0" stroke="#888" stroke-width="1" opacity="1"/><line transform="translate(0,0)" x2="-5" y2="0" stroke="#888" stroke-width="1" opacity="1"/></g><g class="mark-text role-axis-label" pointer-events="none"><text text-anchor="end" transform="translate(-7,403)" font-family="sans-serif" font-size="10px" fill="#000" opacity="1">0</text><text text-anchor="end" transform="translate(-7,353)" font-family="sans-serif" font-size="10px" fill="#000" opacity="1">500</text><text text-anchor="end" transform="translate(-7,303)" font-family="sans-serif" font-size="10px" fill="#000" opacity="1">1,000</text><text text-anchor="end" transform="translate(-7,253)" font-family="sans-serif" font-size="10px" fill="#000" opacity="1">1,500</text><text text-anchor="end" transform="translate(-7,203)" font-family="sans-serif" font-size="10px" fill="#000" opacity="1">2,000</text><text text-anchor="end" transform="translate(-7,153)" font-family="sans-serif" font-size="10px" fill="#000" opacity="1">2,500</text><text text-anchor="end" transform="translate(-7,103)" font-family="sans-serif" font-size="10px" fill="#000" opacity="1">3,000</text><text text-anchor="end" transform="translate(-7,53)" font-family="sans-serif" font-size="10px" fill="#000" opacity="1">3,500</text><text text-anchor="end" transform="translate(-7,3)" font-family="sans-serif" font-size="10px" fill="#000" opacity="1">4,000</text></g><g class="mark-rule role-axis-domain" pointer-events="none"><line transform="translate(0,400)" x2="0" y2="-400" stroke="#888" stroke-width="1" opacity="1"/></g><g class="mark-text role-axis-title" pointer-events="none"><text text-anchor="middle" transform="translate(-36.0244140625,200) rotate(-90) translate(0,-2)" font-family="sans-serif" font-size="11px" font-weight="bold" fill="#000" opacity="1">Count</text></g></g><path class="foreground" aria-hidden="true" d="" pointer-events="none" display="none"/></g></g><g class="mark-rect role-mark marks" role="graphics-object" aria-roledescription="rect mark container"><path aria-label="labels_a1: I-Appeal-to-emotion; Count: 3762; label: I-Appeal-to-emotion; count: 3762" role="graphics-symbol" aria-roledescription="bar" d="M0.875,23.799999999999997h15.75v376.2h-15.75Z" fill="#4c78a8"/><path aria-label="labels_a1: I-Vagueness; Count: 3745; label: I-Vagueness; count: 3745" role="graphics-symbol" aria-roledescription="bar" d="M18.375,25.49999999999999h15.75v374.5h-15.75Z" fill="#4c78a8"/><path aria-label="labels_a1: I-Doubt; Count: 3120; label: I-Doubt; count: 3120" role="graphics-symbol" aria-roledescription="bar" d="M35.875,87.99999999999999h15.75v312h-15.75Z" fill="#4c78a8"/><path aria-label="labels_a1: I-Evading-the-burden-of-proof; Count: 2378; label: I-Evading-the-burden-of-proof; count: 2378" role="graphics-symbol" aria-roledescription="bar" d="M53.375,162.2h15.75v237.8h-15.75Z" fill="#4c78a8"/><path aria-label="labels_a1: I-False-analogy; Count: 2213; label: I-False-analogy; count: 2213" role="graphics-symbol" aria-roledescription="bar" d="M70.875,178.7h15.75v221.3h-15.75Z" fill="#4c78a8"/><path aria-label="labels_a1: I-Hasty-generalization; Count: 1908; label: I-Hasty-generalization; count: 1908" role="graphics-symbol" aria-roledescription="bar" d="M88.375,209.20000000000002h15.75v190.79999999999998h-15.75Z" fill="#4c78a8"/><path aria-label="labels_a1: I-Strawman; Count: 1842; label: I-Strawman; count: 1842" role="graphics-symbol" aria-roledescription="bar" d="M105.875,215.79999999999998h15.75v184.20000000000002h-15.75Z" fill="#4c78a8"/><path aria-label="labels_a1: I-Ad-hominem; Count: 1819; label: I-Ad-hominem; count: 1819" role="graphics-symbol" aria-roledescription="bar" d="M123.375,218.1h15.75v181.9h-15.75Z" fill="#4c78a8"/><path aria-label="labels_a1: I-Loaded-language; Count: 1522; label: I-Loaded-language; count: 1522" role="graphics-symbol" aria-roledescription="bar" d="M140.875,247.79999999999998h15.75v152.20000000000002h-15.75Z" fill="#4c78a8"/><path aria-label="labels_a1: I-Red-herring; Count: 1321; label: I-Red-herring; count: 1321" role="graphics-symbol" aria-roledescription="bar" d="M158.375,267.90000000000003h15.75v132.09999999999997h-15.75Z" fill="#4c78a8"/><path aria-label="labels_a1: I-Causal-oversimplification; Count: 1307; label: I-Causal-oversimplification; count: 1307" role="graphics-symbol" aria-roledescription="bar" d="M175.875,269.3h15.75v130.7h-15.75Z" fill="#4c78a8"/><path aria-label="labels_a1: I-Cherry-picking; Count: 1133; label: I-Cherry-picking; count: 1133" role="graphics-symbol" aria-roledescription="bar" d="M193.375,286.7h15.75v113.30000000000001h-15.75Z" fill="#4c78a8"/><path aria-label="labels_a1: B-Loaded-language; Count: 863; label: B-Loaded-language; count: 863" role="graphics-symbol" aria-roledescription="bar" d="M210.875,313.7h15.75v86.30000000000001h-15.75Z" fill="#4c78a8"/><path aria-label="labels_a1: B-Appeal-to-emotion; Count: 792; label: B-Appeal-to-emotion; count: 792" role="graphics-symbol" aria-roledescription="bar" d="M228.375,320.8h15.75v79.19999999999999h-15.75Z" fill="#4c78a8"/><path aria-label="labels_a1: I-Slippery-slope; Count: 725; label: I-Slippery-slope; count: 725" role="graphics-symbol" aria-roledescription="bar" d="M245.875,327.5h15.75v72.5h-15.75Z" fill="#4c78a8"/><path aria-label="labels_a1: I-Name-calling-or-labelling; Count: 669; label: I-Name-calling-or-labelling; count: 669" role="graphics-symbol" aria-roledescription="bar" d="M263.375,333.1h15.75v66.89999999999998h-15.75Z" fill="#4c78a8"/><path aria-label="labels_a1: I-Flag-waving; Count: 565; label: I-Flag-waving; count: 565" role="graphics-symbol" aria-roledescription="bar" d="M280.875,343.5h15.75v56.5h-15.75Z" fill="#4c78a8"/><path aria-label="labels_a1: I-False-dilemma; Count: 563; label: I-False-dilemma; count: 563" role="graphics-symbol" aria-roledescription="bar" d="M298.375,343.70000000000005h15.75v56.299999999999955h-15.75Z" fill="#4c78a8"/><path aria-label="labels_a1: I-Thought-terminating-cliches; Count: 496; label: I-Thought-terminating-cliches; count: 496" role="graphics-symbol" aria-roledescription="bar" d="M315.875,350.4h15.75v49.60000000000002h-15.75Z" fill="#4c78a8"/><path aria-label="labels_a1: I-Appeal-to-authority; Count: 493; label: I-Appeal-to-authority; count: 493" role="graphics-symbol" aria-roledescription="bar" d="M333.375,350.7h15.75v49.30000000000001h-15.75Z" fill="#4c78a8"/><path aria-label="labels_a1: B-Name-calling-or-labelling; Count: 446; label: B-Name-calling-or-labelling; count: 446" role="graphics-symbol" aria-roledescription="bar" d="M350.875,355.4h15.75v44.60000000000002h-15.75Z" fill="#4c78a8"/><path aria-label="labels_a1: B-Vagueness; Count: 426; label: B-Vagueness; count: 426" role="graphics-symbol" aria-roledescription="bar" d="M368.375,357.4h15.75v42.60000000000002h-15.75Z" fill="#4c78a8"/><path aria-label="labels_a1: I-Slogan; Count: 351; label: I-Slogan; count: 351" role="graphics-symbol" aria-roledescription="bar" d="M385.875,364.9h15.75v35.10000000000002h-15.75Z" fill="#4c78a8"/><path aria-label="labels_a1: I-Circular-reasoning; Count: 279; label: I-Circular-reasoning; count: 279" role="graphics-symbol" aria-roledescription="bar" d="M403.375,372.1h15.75v27.899999999999977h-15.75Z" fill="#4c78a8"/><path aria-label="labels_a1: B-Doubt; Count: 196; label: B-Doubt; count: 196" role="graphics-symbol" aria-roledescription="bar" d="M420.875,380.4h15.75v19.600000000000023h-15.75Z" fill="#4c78a8"/><path aria-label="labels_a1: B-Hasty-generalization; Count: 191; label: B-Hasty-generalization; count: 191" role="graphics-symbol" aria-roledescription="bar" d="M438.375,380.90000000000003h15.75v19.099999999999966h-15.75Z" fill="#4c78a8"/><path aria-label="labels_a1: B-Flag-waving; Count: 158; label: B-Flag-waving; count: 158" role="graphics-symbol" aria-roledescription="bar" d="M455.875,384.2h15.75v15.800000000000011h-15.75Z" fill="#4c78a8"/><path aria-label="labels_a1: B-Slogan; Count: 155; label: B-Slogan; count: 155" role="graphics-symbol" aria-roledescription="bar" d="M473.375,384.5h15.75v15.5h-15.75Z" fill="#4c78a8"/><path aria-label="labels_a1: B-Evading-the-burden-of-proof; Count: 151; label: B-Evading-the-burden-of-proof; count: 151" role="graphics-symbol" aria-roledescription="bar" d="M490.875,384.90000000000003h15.75v15.099999999999966h-15.75Z" fill="#4c78a8"/><path aria-label="labels_a1: B-Ad-hominem; Count: 128; label: B-Ad-hominem; count: 128" role="graphics-symbol" aria-roledescription="bar" d="M508.375,387.2h15.75v12.800000000000011h-15.75Z" fill="#4c78a8"/><path aria-label="labels_a1: B-False-analogy; Count: 115; label: B-False-analogy; count: 115" role="graphics-symbol" aria-roledescription="bar" d="M525.875,388.5h15.75v11.5h-15.75Z" fill="#4c78a8"/><path aria-label="labels_a1: B-Thought-terminating-cliches; Count: 114; label: B-Thought-terminating-cliches; count: 114" role="graphics-symbol" aria-roledescription="bar" d="M543.375,388.6h15.75v11.399999999999977h-15.75Z" fill="#4c78a8"/><path aria-label="labels_a1: B-Red-herring; Count: 103; label: B-Red-herring; count: 103" role="graphics-symbol" aria-roledescription="bar" d="M560.875,389.7h15.75v10.300000000000011h-15.75Z" fill="#4c78a8"/><path aria-label="labels_a1: B-Appeal-to-authority; Count: 96; label: B-Appeal-to-authority; count: 96" role="graphics-symbol" aria-roledescription="bar" d="M578.375,390.4h15.75v9.600000000000023h-15.75Z" fill="#4c78a8"/><path aria-label="labels_a1: B-Slippery-slope; Count: 72; label: B-Slippery-slope; count: 72" role="graphics-symbol" aria-roledescription="bar" d="M595.875,392.8h15.75v7.199999999999989h-15.75Z" fill="#4c78a8"/><path aria-label="labels_a1: B-Causal-oversimplification; Count: 68; label: B-Causal-oversimplification; count: 68" role="graphics-symbol" aria-roledescription="bar" d="M613.375,393.2h15.75v6.800000000000011h-15.75Z" fill="#4c78a8"/><path aria-label="labels_a1: B-Strawman; Count: 53; label: B-Strawman; count: 53" role="graphics-symbol" aria-roledescription="bar" d="M630.875,394.7h15.75v5.300000000000011h-15.75Z" fill="#4c78a8"/><path aria-label="labels_a1: B-Cherry-picking; Count: 41; label: B-Cherry-picking; count: 41" role="graphics-symbol" aria-roledescription="bar" d="M648.375,395.90000000000003h15.75v4.099999999999966h-15.75Z" fill="#4c78a8"/><path aria-label="labels_a1: B-False-dilemma; Count: 35; label: B-False-dilemma; count: 35" role="graphics-symbol" aria-roledescription="bar" d="M665.875,396.5h15.75v3.5h-15.75Z" fill="#4c78a8"/><path aria-label="labels_a1: B-Circular-reasoning; Count: 10; label: B-Circular-reasoning; count: 10" role="graphics-symbol" aria-roledescription="bar" d="M683.375,399h15.75v1h-15.75Z" fill="#4c78a8"/></g><g class="mark-group role-title"><g transform="translate(350,-22)"><path class="background" aria-hidden="true" d="M0,0h0v0h0Z" pointer-events="none"/><g><g class="mark-text role-title-text" role="graphics-symbol" aria-roledescription="title" aria-label="Title text 'Distribution of labels_a1 (excluding O)'" pointer-events="none"><text text-anchor="middle" transform="translate(0,10)" font-family="sans-serif" font-size="13px" font-weight="bold" fill="#000" opacity="1">Distribution of labels_a1 (excluding O)</text></g></g><path class="foreground" aria-hidden="true" d="" pointer-events="none" display="none"/></g></g></g><path class="foreground" aria-hidden="true" d="" display="none"/></g></g></g></svg>